<svg xmlns="http://www.w3.org/2000/svg" width="980" height="560" viewBox="0 0 980 560">
<rect width="100%" height="100%" fill="#fbfbf8"/>
<text x="105" y="40" font-family="Inter, Arial, sans-serif" font-size="24" font-weight="700" fill="#222">RDT-cover edge-case discovery</text>
<text x="105" y="68" font-family="Inter, Arial, sans-serif" font-size="14" fill="#555">Mean seeded edge-case classes found at budget 512 over 5 seeds.</text>
<text x="105" y="89" font-family="Inter, Arial, sans-serif" font-size="13" fill="#666">Hypothesis is predicate-aware; RDT-cover is a deterministic complement, not a replacement.</text>
<line x1="105" y1="430.0" x2="930" y2="430.0" stroke="#333"/>
<text x="93" y="434.0" text-anchor="end" font-family="Inter, Arial, sans-serif" font-size="12" fill="#666">0</text>
<line x1="105" y1="365.0" x2="930" y2="365.0" stroke="#d9d7cf"/>
<text x="93" y="369.0" text-anchor="end" font-family="Inter, Arial, sans-serif" font-size="12" fill="#666">1</text>
<line x1="105" y1="300.0" x2="930" y2="300.0" stroke="#d9d7cf"/>
<text x="93" y="304.0" text-anchor="end" font-family="Inter, Arial, sans-serif" font-size="12" fill="#666">2</text>
<line x1="105" y1="235.0" x2="930" y2="235.0" stroke="#d9d7cf"/>
<text x="93" y="239.0" text-anchor="end" font-family="Inter, Arial, sans-serif" font-size="12" fill="#666">3</text>
<line x1="105" y1="170.0" x2="930" y2="170.0" stroke="#d9d7cf"/>
<text x="93" y="174.0" text-anchor="end" font-family="Inter, Arial, sans-serif" font-size="12" fill="#666">4</text>
<line x1="105" y1="105.0" x2="930" y2="105.0" stroke="#d9d7cf"/>
<text x="93" y="109.0" text-anchor="end" font-family="Inter, Arial, sans-serif" font-size="12" fill="#666">5</text>
<line x1="105" y1="105" x2="105" y2="430" stroke="#333"/>
<line x1="105" y1="430" x2="930" y2="430" stroke="#333"/>
<text x="32" y="267.5" transform="rotate(-90, 32, 267.5)" font-family="Inter, Arial, sans-serif" font-size="13" fill="#333">edge-case classes found</text>
<rect x="105.0" y="105.0" width="114.2" height="325.0" fill="#7B61A8" rx="3"/>
<text x="162.1" y="97.0" text-anchor="middle" font-family="Inter, Arial, sans-serif" font-size="12" fill="#222">5.00</text>
<text x="162.1" y="455" text-anchor="middle" font-family="Inter, Arial, sans-serif" font-size="12" fill="#333">Hypothesis</text>
<text x="162.1" y="470" text-anchor="middle" font-family="Inter, Arial, sans-serif" font-size="12" fill="#333">targeted</text>
<rect x="247.2" y="105.0" width="114.2" height="325.0" fill="#4C78A8" rx="3"/>
<text x="304.2" y="97.0" text-anchor="middle" font-family="Inter, Arial, sans-serif" font-size="12" fill="#222">5.00</text>
<text x="304.2" y="455" text-anchor="middle" font-family="Inter, Arial, sans-serif" font-size="12" fill="#333">RDT</text>
<text x="304.2" y="470" text-anchor="middle" font-family="Inter, Arial, sans-serif" font-size="12" fill="#333">full</text>
<rect x="389.3" y="105.0" width="114.2" height="325.0" fill="#72B7B2" rx="3"/>
<text x="446.4" y="97.0" text-anchor="middle" font-family="Inter, Arial, sans-serif" font-size="12" fill="#222">5.00</text>
<text x="446.4" y="455" text-anchor="middle" font-family="Inter, Arial, sans-serif" font-size="12" fill="#333">RDT+Sobol</text>
<rect x="531.5" y="300.0" width="114.2" height="130.0" fill="#F58518" rx="3"/>
<text x="588.6" y="292.0" text-anchor="middle" font-family="Inter, Arial, sans-serif" font-size="12" fill="#222">2.00</text>
<text x="588.6" y="455" text-anchor="middle" font-family="Inter, Arial, sans-serif" font-size="12" fill="#333">Random</text>
<rect x="673.7" y="300.0" width="114.2" height="130.0" fill="#54A24B" rx="3"/>
<text x="730.8" y="292.0" text-anchor="middle" font-family="Inter, Arial, sans-serif" font-size="12" fill="#222">2.00</text>
<text x="730.8" y="455" text-anchor="middle" font-family="Inter, Arial, sans-serif" font-size="12" fill="#333">Sobol</text>
<rect x="815.8" y="339.0" width="114.2" height="91.0" fill="#E45756" rx="3"/>
<text x="872.9" y="331.0" text-anchor="middle" font-family="Inter, Arial, sans-serif" font-size="12" fill="#222">1.40</text>
<text x="872.9" y="455" text-anchor="middle" font-family="Inter, Arial, sans-serif" font-size="12" fill="#333">Latin</text>
<text x="872.9" y="470" text-anchor="middle" font-family="Inter, Arial, sans-serif" font-size="12" fill="#333">hypercube</text>
<text x="105" y="515" font-family="Inter, Arial, sans-serif" font-size="12" fill="#666">Source: results/raw/release_hardening_2026-05-18/cover/cover_summary.csv</text>
</svg>
