<svg xmlns="http://www.w3.org/2000/svg" width="1120" height="600" viewBox="0 0 1120 600">
<rect width="100%" height="100%" fill="#fbfbf8"/>
<text x="92" y="38" font-family="Inter, Arial, sans-serif" font-size="24" font-weight="700" fill="#222">RDT-cover edge-case discovery</text>
<text x="92" y="66" font-family="Inter, Arial, sans-serif" font-size="14" fill="#555">Mean seeded edge-case classes found at budget 2048 over 10 seeds.</text>
<line x1="92" y1="480.0" x2="1080" y2="480.0" stroke="#e2e0d8" stroke-width="1"/>
<text x="82" y="484.0" text-anchor="end" font-family="Inter, Arial, sans-serif" font-size="12" fill="#666">0.00</text>
<line x1="92" y1="402.4" x2="1080" y2="402.4" stroke="#e2e0d8" stroke-width="1"/>
<text x="82" y="406.4" text-anchor="end" font-family="Inter, Arial, sans-serif" font-size="12" fill="#666">2.91</text>
<line x1="92" y1="324.8" x2="1080" y2="324.8" stroke="#e2e0d8" stroke-width="1"/>
<text x="82" y="328.8" text-anchor="end" font-family="Inter, Arial, sans-serif" font-size="12" fill="#666">5.82</text>
<line x1="92" y1="247.2" x2="1080" y2="247.2" stroke="#e2e0d8" stroke-width="1"/>
<text x="82" y="251.2" text-anchor="end" font-family="Inter, Arial, sans-serif" font-size="12" fill="#666">8.74</text>
<line x1="92" y1="169.6" x2="1080" y2="169.6" stroke="#e2e0d8" stroke-width="1"/>
<text x="82" y="173.6" text-anchor="end" font-family="Inter, Arial, sans-serif" font-size="12" fill="#666">11.65</text>
<line x1="92" y1="92.0" x2="1080" y2="92.0" stroke="#e2e0d8" stroke-width="1"/>
<text x="82" y="96.0" text-anchor="end" font-family="Inter, Arial, sans-serif" font-size="12" fill="#666">14.56</text>
<line x1="92" y1="92" x2="92" y2="480" stroke="#333"/>
<line x1="92" y1="480" x2="1080" y2="480" stroke="#333"/>
<text x="26" y="286.0" transform="rotate(-90, 26, 286.0)" font-family="Inter, Arial, sans-serif" font-size="13" fill="#333">bug classes</text>
<text x="141.4" y="508" text-anchor="middle" font-family="Inter, Arial, sans-serif" font-size="13" fill="#333">Hypothesis</text>
<rect x="102.0" y="133.6" width="75.8" height="346.4" fill="#3B6EA8" rx="2"/>
<text x="240.2" y="508" text-anchor="middle" font-family="Inter, Arial, sans-serif" font-size="13" fill="#333">Powers</text>
<rect x="200.8" y="186.9" width="75.8" height="293.1" fill="#3B6EA8" rx="2"/>
<text x="339.0" y="508" text-anchor="middle" font-family="Inter, Arial, sans-serif" font-size="13" fill="#333">RDT</text>
<rect x="299.6" y="213.5" width="75.8" height="266.5" fill="#3B6EA8" rx="2"/>
<text x="437.8" y="508" text-anchor="middle" font-family="Inter, Arial, sans-serif" font-size="13" fill="#333">Boundary</text>
<rect x="398.4" y="240.2" width="75.8" height="239.8" fill="#3B6EA8" rx="2"/>
<text x="536.6" y="508" text-anchor="middle" font-family="Inter, Arial, sans-serif" font-size="13" fill="#333">RDT+Sobol</text>
<rect x="497.2" y="240.2" width="75.8" height="239.8" fill="#3B6EA8" rx="2"/>
<text x="635.4" y="508" text-anchor="middle" font-family="Inter, Arial, sans-serif" font-size="13" fill="#333">Midpoint</text>
<rect x="596.0" y="320.1" width="75.8" height="159.9" fill="#3B6EA8" rx="2"/>
<text x="734.2" y="508" text-anchor="middle" font-family="Inter, Arial, sans-serif" font-size="13" fill="#333">Random</text>
<rect x="694.8" y="373.4" width="75.8" height="106.6" fill="#3B6EA8" rx="2"/>
<text x="833.0" y="508" text-anchor="middle" font-family="Inter, Arial, sans-serif" font-size="13" fill="#333">Sobol</text>
<rect x="793.6" y="373.4" width="75.8" height="106.6" fill="#3B6EA8" rx="2"/>
<text x="931.8" y="508" text-anchor="middle" font-family="Inter, Arial, sans-serif" font-size="13" fill="#333">Halton</text>
<rect x="892.4" y="373.4" width="75.8" height="106.6" fill="#3B6EA8" rx="2"/>
<text x="1030.6" y="508" text-anchor="middle" font-family="Inter, Arial, sans-serif" font-size="13" fill="#333">Latin</text>
<rect x="991.2" y="373.4" width="75.8" height="106.6" fill="#3B6EA8" rx="2"/>
<rect x="92" y="542" width="14" height="14" fill="#3B6EA8" rx="2"/>
<text x="112" y="554" font-family="Inter, Arial, sans-serif" font-size="13" fill="#333">classes found</text>
<text x="1080" y="582" text-anchor="end" font-family="Inter, Arial, sans-serif" font-size="12" fill="#777">Expanded 14-class synthetic corpus</text>
</svg>
