<svg xmlns="http://www.w3.org/2000/svg" width="900" height="520" viewBox="0 0 900 520">
<rect width="100%" height="100%" fill="#fbfbf8"/>
<text x="110" y="38" font-family="Inter, Arial, sans-serif" font-size="24" font-weight="700" fill="#222">RDT-cover edge-case discovery</text>
<text x="110" y="66" font-family="Inter, Arial, sans-serif" font-size="14" fill="#555">Mean seeded bug classes found at fixed budget. Full and hybrid schedules found all five classes.</text>
<line x1="110" y1="420.0" x2="860" y2="420.0" stroke="#e2e0d8"/>
<text x="100" y="424.0" text-anchor="end" font-family="Inter, Arial, sans-serif" font-size="12" fill="#666">0.00</text>
<line x1="110" y1="355.0" x2="860" y2="355.0" stroke="#e2e0d8"/>
<text x="100" y="359.0" text-anchor="end" font-family="Inter, Arial, sans-serif" font-size="12" fill="#666">1.18</text>
<line x1="110" y1="290.0" x2="860" y2="290.0" stroke="#e2e0d8"/>
<text x="100" y="294.0" text-anchor="end" font-family="Inter, Arial, sans-serif" font-size="12" fill="#666">2.36</text>
<line x1="110" y1="225.0" x2="860" y2="225.0" stroke="#e2e0d8"/>
<text x="100" y="229.0" text-anchor="end" font-family="Inter, Arial, sans-serif" font-size="12" fill="#666">3.54</text>
<line x1="110" y1="160.0" x2="860" y2="160.0" stroke="#e2e0d8"/>
<text x="100" y="164.0" text-anchor="end" font-family="Inter, Arial, sans-serif" font-size="12" fill="#666">4.72</text>
<line x1="110" y1="95.0" x2="860" y2="95.0" stroke="#e2e0d8"/>
<text x="100" y="99.0" text-anchor="end" font-family="Inter, Arial, sans-serif" font-size="12" fill="#666">5.90</text>
<line x1="110" y1="95" x2="110" y2="420" stroke="#333"/>
<line x1="110" y1="420" x2="860" y2="420" stroke="#333"/>
<text x="28" y="257.5" transform="rotate(-90, 28, 257.5)" font-family="Inter, Arial, sans-serif" font-size="13" fill="#333">bug classes found</text>
<rect x="110.0" y="144.6" width="95.1" height="275.4" fill="#4C78A8" rx="3"/>
<text x="157.6" y="137.6" text-anchor="middle" font-family="Inter, Arial, sans-serif" font-size="12" fill="#222">5.00</text>
<text x="157.6" y="444" text-anchor="middle" font-family="Inter, Arial, sans-serif" font-size="12" fill="#333">Full</text>
<rect x="219.1" y="144.6" width="95.1" height="275.4" fill="#72B7B2" rx="3"/>
<text x="266.7" y="137.6" text-anchor="middle" font-family="Inter, Arial, sans-serif" font-size="12" fill="#222">5.00</text>
<text x="266.7" y="444" text-anchor="middle" font-family="Inter, Arial, sans-serif" font-size="12" fill="#333">Hybrid</text>
<rect x="328.3" y="199.7" width="95.1" height="220.3" fill="#B279A2" rx="3"/>
<text x="375.9" y="192.7" text-anchor="middle" font-family="Inter, Arial, sans-serif" font-size="12" fill="#222">4.00</text>
<text x="375.9" y="444" text-anchor="middle" font-family="Inter, Arial, sans-serif" font-size="12" fill="#333">Powers</text>
<rect x="437.4" y="254.7" width="95.1" height="165.3" fill="#B279A2" rx="3"/>
<text x="485.0" y="247.7" text-anchor="middle" font-family="Inter, Arial, sans-serif" font-size="12" fill="#222">3.00</text>
<text x="485.0" y="444" text-anchor="middle" font-family="Inter, Arial, sans-serif" font-size="12" fill="#333">Midpoints</text>
<rect x="546.6" y="254.7" width="95.1" height="165.3" fill="#B279A2" rx="3"/>
<text x="594.1" y="247.7" text-anchor="middle" font-family="Inter, Arial, sans-serif" font-size="12" fill="#222">3.00</text>
<text x="594.1" y="444" text-anchor="middle" font-family="Inter, Arial, sans-serif" font-size="12" fill="#333">Boundary</text>
<rect x="655.7" y="309.8" width="95.1" height="110.2" fill="#F58518" rx="3"/>
<text x="703.3" y="302.8" text-anchor="middle" font-family="Inter, Arial, sans-serif" font-size="12" fill="#222">2.00</text>
<text x="703.3" y="444" text-anchor="middle" font-family="Inter, Arial, sans-serif" font-size="12" fill="#333">Random</text>
<rect x="764.9" y="309.8" width="95.1" height="110.2" fill="#54A24B" rx="3"/>
<text x="812.4" y="302.8" text-anchor="middle" font-family="Inter, Arial, sans-serif" font-size="12" fill="#222">2.00</text>
<text x="812.4" y="444" text-anchor="middle" font-family="Inter, Arial, sans-serif" font-size="12" fill="#333">Sobol</text>
</svg>