<svg xmlns="http://www.w3.org/2000/svg" width="980" height="560" viewBox="0 0 980 560">
<rect width="100%" height="100%" fill="#fbfbf8"/>
<text x="100" y="38" font-family="Inter, Arial, sans-serif" font-size="24" font-weight="700" fill="#222">Geometry validation error</text>
<text x="100" y="66" font-family="Inter, Arial, sans-serif" font-size="14" fill="#555">Lower is better. RDT schedule slightly improves selected known-form errors against the coarse midpoint baseline.</text>
<line x1="100" y1="455.0" x2="940" y2="455.0" stroke="#e2e0d8" stroke-width="1"/>
<text x="90" y="459.0" text-anchor="end" font-family="Inter, Arial, sans-serif" font-size="12" fill="#666">0.00</text>
<line x1="100" y1="384.0" x2="940" y2="384.0" stroke="#e2e0d8" stroke-width="1"/>
<text x="90" y="388.0" text-anchor="end" font-family="Inter, Arial, sans-serif" font-size="12" fill="#666">0.00</text>
<line x1="100" y1="313.0" x2="940" y2="313.0" stroke="#e2e0d8" stroke-width="1"/>
<text x="90" y="317.0" text-anchor="end" font-family="Inter, Arial, sans-serif" font-size="12" fill="#666">0.00</text>
<line x1="100" y1="242.0" x2="940" y2="242.0" stroke="#e2e0d8" stroke-width="1"/>
<text x="90" y="246.0" text-anchor="end" font-family="Inter, Arial, sans-serif" font-size="12" fill="#666">0.00</text>
<line x1="100" y1="171.0" x2="940" y2="171.0" stroke="#e2e0d8" stroke-width="1"/>
<text x="90" y="175.0" text-anchor="end" font-family="Inter, Arial, sans-serif" font-size="12" fill="#666">0.00</text>
<line x1="100" y1="100.0" x2="940" y2="100.0" stroke="#e2e0d8" stroke-width="1"/>
<text x="90" y="104.0" text-anchor="end" font-family="Inter, Arial, sans-serif" font-size="12" fill="#666">0.00</text>
<line x1="100" y1="100" x2="100" y2="455" stroke="#333"/>
<line x1="100" y1="455" x2="940" y2="455" stroke="#333"/>
<text x="26" y="277.5" transform="rotate(-90, 26, 277.5)" font-family="Inter, Arial, sans-serif" font-size="13" fill="#333">max relative error</text>
<text x="234.0" y="483" text-anchor="middle" font-family="Inter, Arial, sans-serif" font-size="13" fill="#333">r=0.5</text>
<rect x="100.0" y="165.7" width="131.0" height="289.3" fill="#4C78A8" rx="2"/>
<text x="165.5" y="160.7" text-anchor="middle" font-family="Inter, Arial, sans-serif" font-size="11" fill="#222">0.00</text>
<rect x="237.0" y="138.0" width="131.0" height="317.0" fill="#F58518" rx="2"/>
<text x="302.5" y="133.0" text-anchor="middle" font-family="Inter, Arial, sans-serif" font-size="11" fill="#222">0.00</text>
<text x="520.0" y="483" text-anchor="middle" font-family="Inter, Arial, sans-serif" font-size="13" fill="#333">r=1.0</text>
<rect x="386.0" y="165.7" width="131.0" height="289.3" fill="#4C78A8" rx="2"/>
<text x="451.5" y="160.7" text-anchor="middle" font-family="Inter, Arial, sans-serif" font-size="11" fill="#222">0.00</text>
<rect x="523.0" y="138.0" width="131.0" height="317.0" fill="#F58518" rx="2"/>
<text x="588.5" y="133.0" text-anchor="middle" font-family="Inter, Arial, sans-serif" font-size="11" fill="#222">0.00</text>
<text x="806.0" y="483" text-anchor="middle" font-family="Inter, Arial, sans-serif" font-size="13" fill="#333">r=2.0</text>
<rect x="672.0" y="165.7" width="131.0" height="289.3" fill="#4C78A8" rx="2"/>
<text x="737.5" y="160.7" text-anchor="middle" font-family="Inter, Arial, sans-serif" font-size="11" fill="#222">0.00</text>
<rect x="809.0" y="138.0" width="131.0" height="317.0" fill="#F58518" rx="2"/>
<text x="874.5" y="133.0" text-anchor="middle" font-family="Inter, Arial, sans-serif" font-size="11" fill="#222">0.00</text>
<rect x="100" y="510" width="14" height="14" fill="#4C78A8" rx="2"/>
<text x="120" y="522" font-family="Inter, Arial, sans-serif" font-size="13" fill="#333">RDT max rel. err.</text>
<rect x="270" y="510" width="14" height="14" fill="#F58518" rx="2"/>
<text x="290" y="522" font-family="Inter, Arial, sans-serif" font-size="13" fill="#333">midpoint baseline</text>
</svg>