<svg xmlns="http://www.w3.org/2000/svg" width="1040" height="600" viewBox="0 0 1040 600">
<rect width="100%" height="100%" fill="#fbfbf8"/>
<text x="92" y="38" font-family="Inter, Arial, sans-serif" font-size="24" font-weight="700" fill="#222">Runtime caveat on uniform points</text>
<text x="92" y="66" font-family="Inter, Arial, sans-serif" font-size="14" fill="#555">RDT wins the combined score, not raw assignment speed.</text>
<line x1="92" y1="480.0" x2="1000" y2="480.0" stroke="#e2e0d8" stroke-width="1"/>
<text x="82" y="484.0" text-anchor="end" font-family="Inter, Arial, sans-serif" font-size="12" fill="#666">0.00</text>
<line x1="92" y1="402.4" x2="1000" y2="402.4" stroke="#e2e0d8" stroke-width="1"/>
<text x="82" y="406.4" text-anchor="end" font-family="Inter, Arial, sans-serif" font-size="12" fill="#666">0.01</text>
<line x1="92" y1="324.8" x2="1000" y2="324.8" stroke="#e2e0d8" stroke-width="1"/>
<text x="82" y="328.8" text-anchor="end" font-family="Inter, Arial, sans-serif" font-size="12" fill="#666">0.02</text>
<line x1="92" y1="247.2" x2="1000" y2="247.2" stroke="#e2e0d8" stroke-width="1"/>
<text x="82" y="251.2" text-anchor="end" font-family="Inter, Arial, sans-serif" font-size="12" fill="#666">0.03</text>
<line x1="92" y1="169.6" x2="1000" y2="169.6" stroke="#e2e0d8" stroke-width="1"/>
<text x="82" y="173.6" text-anchor="end" font-family="Inter, Arial, sans-serif" font-size="12" fill="#666">0.03</text>
<line x1="92" y1="92.0" x2="1000" y2="92.0" stroke="#e2e0d8" stroke-width="1"/>
<text x="82" y="96.0" text-anchor="end" font-family="Inter, Arial, sans-serif" font-size="12" fill="#666">0.04</text>
<line x1="92" y1="92" x2="92" y2="480" stroke="#333"/>
<line x1="92" y1="480" x2="1000" y2="480" stroke="#333"/>
<text x="26" y="286.0" transform="rotate(-90, 26, 286.0)" font-family="Inter, Arial, sans-serif" font-size="13" fill="#333">seconds</text>
<text x="205.5" y="508" text-anchor="middle" font-family="Inter, Arial, sans-serif" font-size="13" fill="#333">1k</text>
<rect x="102.0" y="401.0" width="100.5" height="79.0" fill="#3B6EA8" rx="2"/>
<text x="152.2" y="396.0" text-anchor="middle" font-family="Inter, Arial, sans-serif" font-size="10" fill="#222">0.01</text>
<rect x="205.5" y="479.6" width="100.5" height="0.4" fill="#D97B24" rx="2"/>
<text x="255.8" y="474.6" text-anchor="middle" font-family="Inter, Arial, sans-serif" font-size="10" fill="#222">0.00</text>
<text x="432.5" y="508" text-anchor="middle" font-family="Inter, Arial, sans-serif" font-size="13" fill="#333">5k</text>
<rect x="329.0" y="384.9" width="100.5" height="95.1" fill="#3B6EA8" rx="2"/>
<text x="379.2" y="379.9" text-anchor="middle" font-family="Inter, Arial, sans-serif" font-size="10" fill="#222">0.01</text>
<rect x="432.5" y="479.2" width="100.5" height="0.8" fill="#D97B24" rx="2"/>
<text x="482.8" y="474.2" text-anchor="middle" font-family="Inter, Arial, sans-serif" font-size="10" fill="#222">0.00</text>
<text x="659.5" y="508" text-anchor="middle" font-family="Inter, Arial, sans-serif" font-size="13" fill="#333">20k</text>
<rect x="556.0" y="290.6" width="100.5" height="189.4" fill="#3B6EA8" rx="2"/>
<text x="606.2" y="285.6" text-anchor="middle" font-family="Inter, Arial, sans-serif" font-size="10" fill="#222">0.02</text>
<rect x="659.5" y="478.7" width="100.5" height="1.3" fill="#D97B24" rx="2"/>
<text x="709.8" y="473.7" text-anchor="middle" font-family="Inter, Arial, sans-serif" font-size="10" fill="#222">0.00</text>
<text x="886.5" y="508" text-anchor="middle" font-family="Inter, Arial, sans-serif" font-size="13" fill="#333">50k</text>
<rect x="783.0" y="133.6" width="100.5" height="346.4" fill="#3B6EA8" rx="2"/>
<text x="833.2" y="128.6" text-anchor="middle" font-family="Inter, Arial, sans-serif" font-size="10" fill="#222">0.04</text>
<rect x="886.5" y="477.4" width="100.5" height="2.6" fill="#D97B24" rx="2"/>
<text x="936.8" y="472.4" text-anchor="middle" font-family="Inter, Arial, sans-serif" font-size="10" fill="#222">0.00</text>
<rect x="92" y="542" width="14" height="14" fill="#3B6EA8" rx="2"/>
<text x="112" y="554" font-family="Inter, Arial, sans-serif" font-size="13" fill="#333">RDT seconds</text>
<rect x="224" y="542" width="14" height="14" fill="#D97B24" rx="2"/>
<text x="244" y="554" font-family="Inter, Arial, sans-serif" font-size="13" fill="#333">fastest seconds</text>
<text x="1000" y="582" text-anchor="end" font-family="Inter, Arial, sans-serif" font-size="12" fill="#777">Submission-validation scaling run</text>
</svg>
