<svg xmlns="http://www.w3.org/2000/svg" width="980" height="560" viewBox="0 0 980 560">
<rect width="100%" height="100%" fill="#fbfbf8"/>
<text x="100" y="38" font-family="Inter, Arial, sans-serif" font-size="24" font-weight="700" fill="#222">Residual sampler: real California residual field</text>
<text x="100" y="66" font-family="Inter, Arial, sans-serif" font-size="14" fill="#555">Higher composite is better. Greedy top-residual selection beats RDT variants here.</text>
<line x1="100" y1="455.0" x2="940" y2="455.0" stroke="#e2e0d8" stroke-width="1"/>
<text x="90" y="459.0" text-anchor="end" font-family="Inter, Arial, sans-serif" font-size="12" fill="#666">0.00</text>
<line x1="100" y1="384.0" x2="940" y2="384.0" stroke="#e2e0d8" stroke-width="1"/>
<text x="90" y="388.0" text-anchor="end" font-family="Inter, Arial, sans-serif" font-size="12" fill="#666">0.12</text>
<line x1="100" y1="313.0" x2="940" y2="313.0" stroke="#e2e0d8" stroke-width="1"/>
<text x="90" y="317.0" text-anchor="end" font-family="Inter, Arial, sans-serif" font-size="12" fill="#666">0.25</text>
<line x1="100" y1="242.0" x2="940" y2="242.0" stroke="#e2e0d8" stroke-width="1"/>
<text x="90" y="246.0" text-anchor="end" font-family="Inter, Arial, sans-serif" font-size="12" fill="#666">0.37</text>
<line x1="100" y1="171.0" x2="940" y2="171.0" stroke="#e2e0d8" stroke-width="1"/>
<text x="90" y="175.0" text-anchor="end" font-family="Inter, Arial, sans-serif" font-size="12" fill="#666">0.50</text>
<line x1="100" y1="100.0" x2="940" y2="100.0" stroke="#e2e0d8" stroke-width="1"/>
<text x="90" y="104.0" text-anchor="end" font-family="Inter, Arial, sans-serif" font-size="12" fill="#666">0.62</text>
<line x1="100" y1="100" x2="100" y2="455" stroke="#333"/>
<line x1="100" y1="455" x2="940" y2="455" stroke="#333"/>
<text x="26" y="277.5" transform="rotate(-90, 26, 277.5)" font-family="Inter, Arial, sans-serif" font-size="13" fill="#333">score</text>
<text x="198.2" y="483" text-anchor="middle" font-family="Inter, Arial, sans-serif" font-size="13" fill="#333">Composite</text>
<rect x="100.0" y="192.0" width="61.5" height="263.0" fill="#F58518" rx="2"/>
<text x="130.8" y="187.0" text-anchor="middle" font-family="Inter, Arial, sans-serif" font-size="11" fill="#222">0.46</text>
<rect x="167.5" y="292.6" width="61.5" height="162.4" fill="#4C78A8" rx="2"/>
<text x="198.2" y="287.6" text-anchor="middle" font-family="Inter, Arial, sans-serif" font-size="11" fill="#222">0.28</text>
<rect x="235.0" y="287.5" width="61.5" height="167.5" fill="#BAB0AC" rx="2"/>
<text x="265.8" y="282.5" text-anchor="middle" font-family="Inter, Arial, sans-serif" font-size="11" fill="#222">0.29</text>
<text x="412.8" y="483" text-anchor="middle" font-family="Inter, Arial, sans-serif" font-size="13" fill="#333">Top recall</text>
<rect x="314.5" y="171.2" width="61.5" height="283.8" fill="#F58518" rx="2"/>
<text x="345.2" y="166.2" text-anchor="middle" font-family="Inter, Arial, sans-serif" font-size="11" fill="#222">0.50</text>
<rect x="382.0" y="370.2" width="61.5" height="84.8" fill="#4C78A8" rx="2"/>
<text x="412.8" y="365.2" text-anchor="middle" font-family="Inter, Arial, sans-serif" font-size="11" fill="#222">0.15</text>
<rect x="449.5" y="440.6" width="61.5" height="14.4" fill="#BAB0AC" rx="2"/>
<text x="480.2" y="435.6" text-anchor="middle" font-family="Inter, Arial, sans-serif" font-size="11" fill="#222">0.03</text>
<text x="627.2" y="483" text-anchor="middle" font-family="Inter, Arial, sans-serif" font-size="13" fill="#333">Mean residual</text>
<rect x="529.0" y="178.0" width="61.5" height="277.0" fill="#F58518" rx="2"/>
<text x="559.8" y="173.0" text-anchor="middle" font-family="Inter, Arial, sans-serif" font-size="11" fill="#222">0.48</text>
<rect x="596.5" y="334.5" width="61.5" height="120.5" fill="#4C78A8" rx="2"/>
<text x="627.2" y="329.5" text-anchor="middle" font-family="Inter, Arial, sans-serif" font-size="11" fill="#222">0.21</text>
<rect x="664.0" y="409.4" width="61.5" height="45.6" fill="#BAB0AC" rx="2"/>
<text x="694.8" y="404.4" text-anchor="middle" font-family="Inter, Arial, sans-serif" font-size="11" fill="#222">0.08</text>
<text x="841.8" y="483" text-anchor="middle" font-family="Inter, Arial, sans-serif" font-size="13" fill="#333">Coverage entropy</text>
<rect x="743.5" y="176.0" width="61.5" height="279.0" fill="#F58518" rx="2"/>
<text x="774.2" y="171.0" text-anchor="middle" font-family="Inter, Arial, sans-serif" font-size="11" fill="#222">0.49</text>
<rect x="811.0" y="217.5" width="61.5" height="237.5" fill="#4C78A8" rx="2"/>
<text x="841.8" y="212.5" text-anchor="middle" font-family="Inter, Arial, sans-serif" font-size="11" fill="#222">0.42</text>
<rect x="878.5" y="138.0" width="61.5" height="317.0" fill="#BAB0AC" rx="2"/>
<text x="909.2" y="133.0" text-anchor="middle" font-family="Inter, Arial, sans-serif" font-size="11" fill="#222">0.55</text>
<rect x="100" y="510" width="14" height="14" fill="#F58518" rx="2"/>
<text x="120" y="522" font-family="Inter, Arial, sans-serif" font-size="13" fill="#333">Top residual</text>
<rect x="270" y="510" width="14" height="14" fill="#4C78A8" rx="2"/>
<text x="290" y="522" font-family="Inter, Arial, sans-serif" font-size="13" fill="#333">RDT tuned</text>
<rect x="440" y="510" width="14" height="14" fill="#BAB0AC" rx="2"/>
<text x="460" y="522" font-family="Inter, Arial, sans-serif" font-size="13" fill="#333">Uniform</text>
<text x="940" y="542" text-anchor="end" font-family="Inter, Arial, sans-serif" font-size="12" fill="#777">Useful failure case: residual sampler remains research-only</text>
</svg>