<svg xmlns="http://www.w3.org/2000/svg" width="980" height="560" viewBox="0 0 980 560">
<rect width="100%" height="100%" fill="#fbfbf8"/>
<text x="100" y="38" font-family="Inter, Arial, sans-serif" font-size="24" font-weight="700" fill="#222">Stable label ablation</text>
<text x="100" y="66" font-family="Inter, Arial, sans-serif" font-size="14" fill="#555">Stable ancestor labels beat remapped labels and Jump Hash in representative resize tasks.</text>
<line x1="100" y1="455.0" x2="940" y2="455.0" stroke="#e2e0d8" stroke-width="1"/>
<text x="90" y="459.0" text-anchor="end" font-family="Inter, Arial, sans-serif" font-size="12" fill="#666">0.00</text>
<line x1="100" y1="384.0" x2="940" y2="384.0" stroke="#e2e0d8" stroke-width="1"/>
<text x="90" y="388.0" text-anchor="end" font-family="Inter, Arial, sans-serif" font-size="12" fill="#666">0.29</text>
<line x1="100" y1="313.0" x2="940" y2="313.0" stroke="#e2e0d8" stroke-width="1"/>
<text x="90" y="317.0" text-anchor="end" font-family="Inter, Arial, sans-serif" font-size="12" fill="#666">0.57</text>
<line x1="100" y1="242.0" x2="940" y2="242.0" stroke="#e2e0d8" stroke-width="1"/>
<text x="90" y="246.0" text-anchor="end" font-family="Inter, Arial, sans-serif" font-size="12" fill="#666">0.86</text>
<line x1="100" y1="171.0" x2="940" y2="171.0" stroke="#e2e0d8" stroke-width="1"/>
<text x="90" y="175.0" text-anchor="end" font-family="Inter, Arial, sans-serif" font-size="12" fill="#666">1.14</text>
<line x1="100" y1="100.0" x2="940" y2="100.0" stroke="#e2e0d8" stroke-width="1"/>
<text x="90" y="104.0" text-anchor="end" font-family="Inter, Arial, sans-serif" font-size="12" fill="#666">1.43</text>
<line x1="100" y1="100" x2="100" y2="455" stroke="#333"/>
<line x1="100" y1="455" x2="940" y2="455" stroke="#333"/>
<text x="26" y="277.5" transform="rotate(-90, 26, 277.5)" font-family="Inter, Arial, sans-serif" font-size="13" fill="#333">combined score</text>
<text x="198.2" y="483" text-anchor="middle" font-family="Inter, Arial, sans-serif" font-size="13" fill="#333">CA 16-&gt;20</text>
<rect x="100.0" y="346.1" width="61.5" height="108.9" fill="#4C78A8" rx="2"/>
<text x="130.8" y="341.1" text-anchor="middle" font-family="Inter, Arial, sans-serif" font-size="11" fill="#222">0.44</text>
<rect x="167.5" y="152.0" width="61.5" height="303.0" fill="#E45756" rx="2"/>
<text x="198.2" y="147.0" text-anchor="middle" font-family="Inter, Arial, sans-serif" font-size="11" fill="#222">1.22</text>
<rect x="235.0" y="291.5" width="61.5" height="163.5" fill="#F58518" rx="2"/>
<text x="265.8" y="286.5" text-anchor="middle" font-family="Inter, Arial, sans-serif" font-size="11" fill="#222">0.66</text>
<text x="412.8" y="483" text-anchor="middle" font-family="Inter, Arial, sans-serif" font-size="13" fill="#333">CA 64-&gt;80</text>
<rect x="314.5" y="339.7" width="61.5" height="115.3" fill="#4C78A8" rx="2"/>
<text x="345.2" y="334.7" text-anchor="middle" font-family="Inter, Arial, sans-serif" font-size="11" fill="#222">0.46</text>
<rect x="382.0" y="138.0" width="61.5" height="317.0" fill="#E45756" rx="2"/>
<text x="412.8" y="133.0" text-anchor="middle" font-family="Inter, Arial, sans-serif" font-size="11" fill="#222">1.28</text>
<rect x="449.5" y="286.4" width="61.5" height="168.6" fill="#F58518" rx="2"/>
<text x="480.2" y="281.4" text-anchor="middle" font-family="Inter, Arial, sans-serif" font-size="11" fill="#222">0.68</text>
<text x="627.2" y="483" text-anchor="middle" font-family="Inter, Arial, sans-serif" font-size="13" fill="#333">Uniform 16-&gt;20</text>
<rect x="529.0" y="405.3" width="61.5" height="49.7" fill="#4C78A8" rx="2"/>
<text x="559.8" y="400.3" text-anchor="middle" font-family="Inter, Arial, sans-serif" font-size="11" fill="#222">0.20</text>
<rect x="596.5" y="245.4" width="61.5" height="209.6" fill="#E45756" rx="2"/>
<text x="627.2" y="240.4" text-anchor="middle" font-family="Inter, Arial, sans-serif" font-size="11" fill="#222">0.84</text>
<rect x="664.0" y="291.1" width="61.5" height="163.9" fill="#F58518" rx="2"/>
<text x="694.8" y="286.1" text-anchor="middle" font-family="Inter, Arial, sans-serif" font-size="11" fill="#222">0.66</text>
<text x="841.8" y="483" text-anchor="middle" font-family="Inter, Arial, sans-serif" font-size="13" fill="#333">Cluster 16-&gt;20</text>
<rect x="743.5" y="389.5" width="61.5" height="65.5" fill="#4C78A8" rx="2"/>
<text x="774.2" y="384.5" text-anchor="middle" font-family="Inter, Arial, sans-serif" font-size="11" fill="#222">0.26</text>
<rect x="811.0" y="218.7" width="61.5" height="236.3" fill="#E45756" rx="2"/>
<text x="841.8" y="213.7" text-anchor="middle" font-family="Inter, Arial, sans-serif" font-size="11" fill="#222">0.95</text>
<rect x="878.5" y="291.1" width="61.5" height="163.9" fill="#F58518" rx="2"/>
<text x="909.2" y="286.1" text-anchor="middle" font-family="Inter, Arial, sans-serif" font-size="11" fill="#222">0.66</text>
<rect x="100" y="510" width="14" height="14" fill="#4C78A8" rx="2"/>
<text x="120" y="522" font-family="Inter, Arial, sans-serif" font-size="13" fill="#333">stable labels</text>
<rect x="270" y="510" width="14" height="14" fill="#E45756" rx="2"/>
<text x="290" y="522" font-family="Inter, Arial, sans-serif" font-size="13" fill="#333">remapped labels</text>
<rect x="440" y="510" width="14" height="14" fill="#F58518" rx="2"/>
<text x="460" y="522" font-family="Inter, Arial, sans-serif" font-size="13" fill="#333">Jump Hash</text>
<text x="940" y="542" text-anchor="end" font-family="Inter, Arial, sans-serif" font-size="12" fill="#777">5-seed ablation summary</text>
</svg>