<svg xmlns="http://www.w3.org/2000/svg" width="1040" height="600" viewBox="0 0 1040 600">
<rect width="100%" height="100%" fill="#fbfbf8"/>
<text x="92" y="38" font-family="Inter, Arial, sans-serif" font-size="24" font-weight="700" fill="#222">Stable label ablation</text>
<text x="92" y="66" font-family="Inter, Arial, sans-serif" font-size="14" fill="#555">Stable ancestor labels beat remapped labels and Jump Hash in representative resize tasks.</text>
<line x1="92" y1="480.0" x2="1000" y2="480.0" stroke="#e2e0d8" stroke-width="1"/>
<text x="82" y="484.0" text-anchor="end" font-family="Inter, Arial, sans-serif" font-size="12" fill="#666">0.00</text>
<line x1="92" y1="402.4" x2="1000" y2="402.4" stroke="#e2e0d8" stroke-width="1"/>
<text x="82" y="406.4" text-anchor="end" font-family="Inter, Arial, sans-serif" font-size="12" fill="#666">0.28</text>
<line x1="92" y1="324.8" x2="1000" y2="324.8" stroke="#e2e0d8" stroke-width="1"/>
<text x="82" y="328.8" text-anchor="end" font-family="Inter, Arial, sans-serif" font-size="12" fill="#666">0.57</text>
<line x1="92" y1="247.2" x2="1000" y2="247.2" stroke="#e2e0d8" stroke-width="1"/>
<text x="82" y="251.2" text-anchor="end" font-family="Inter, Arial, sans-serif" font-size="12" fill="#666">0.85</text>
<line x1="92" y1="169.6" x2="1000" y2="169.6" stroke="#e2e0d8" stroke-width="1"/>
<text x="82" y="173.6" text-anchor="end" font-family="Inter, Arial, sans-serif" font-size="12" fill="#666">1.14</text>
<line x1="92" y1="92.0" x2="1000" y2="92.0" stroke="#e2e0d8" stroke-width="1"/>
<text x="82" y="96.0" text-anchor="end" font-family="Inter, Arial, sans-serif" font-size="12" fill="#666">1.42</text>
<line x1="92" y1="92" x2="92" y2="480" stroke="#333"/>
<line x1="92" y1="480" x2="1000" y2="480" stroke="#333"/>
<text x="26" y="286.0" transform="rotate(-90, 26, 286.0)" font-family="Inter, Arial, sans-serif" font-size="13" fill="#333">combined score</text>
<text x="205.5" y="508" text-anchor="middle" font-family="Inter, Arial, sans-serif" font-size="13" fill="#333">CA 16->20</text>
<rect x="102.0" y="352.4" width="66.0" height="127.6" fill="#3B6EA8" rx="2"/>
<text x="135.0" y="347.4" text-anchor="middle" font-family="Inter, Arial, sans-serif" font-size="10" fill="#222">0.47</text>
<rect x="171.0" y="133.6" width="66.0" height="346.4" fill="#D97B24" rx="2"/>
<text x="204.0" y="128.6" text-anchor="middle" font-family="Inter, Arial, sans-serif" font-size="10" fill="#222">1.27</text>
<rect x="240.0" y="295.7" width="66.0" height="184.3" fill="#4C9A51" rx="2"/>
<text x="273.0" y="290.7" text-anchor="middle" font-family="Inter, Arial, sans-serif" font-size="10" fill="#222">0.67</text>
<text x="432.5" y="508" text-anchor="middle" font-family="Inter, Arial, sans-serif" font-size="13" fill="#333">CA 64->80</text>
<rect x="329.0" y="350.9" width="66.0" height="129.1" fill="#3B6EA8" rx="2"/>
<text x="362.0" y="345.9" text-anchor="middle" font-family="Inter, Arial, sans-serif" font-size="10" fill="#222">0.47</text>
<rect x="398.0" y="140.1" width="66.0" height="339.9" fill="#D97B24" rx="2"/>
<text x="431.0" y="135.1" text-anchor="middle" font-family="Inter, Arial, sans-serif" font-size="10" fill="#222">1.24</text>
<rect x="467.0" y="282.9" width="66.0" height="197.1" fill="#4C9A51" rx="2"/>
<text x="500.0" y="277.9" text-anchor="middle" font-family="Inter, Arial, sans-serif" font-size="10" fill="#222">0.72</text>
<text x="659.5" y="508" text-anchor="middle" font-family="Inter, Arial, sans-serif" font-size="13" fill="#333">Uniform 16->20</text>
<rect x="556.0" y="425.1" width="66.0" height="54.9" fill="#3B6EA8" rx="2"/>
<text x="589.0" y="420.1" text-anchor="middle" font-family="Inter, Arial, sans-serif" font-size="10" fill="#222">0.20</text>
<rect x="625.0" y="229.7" width="66.0" height="250.3" fill="#D97B24" rx="2"/>
<text x="658.0" y="224.7" text-anchor="middle" font-family="Inter, Arial, sans-serif" font-size="10" fill="#222">0.92</text>
<rect x="694.0" y="295.8" width="66.0" height="184.2" fill="#4C9A51" rx="2"/>
<text x="727.0" y="290.8" text-anchor="middle" font-family="Inter, Arial, sans-serif" font-size="10" fill="#222">0.67</text>
<text x="886.5" y="508" text-anchor="middle" font-family="Inter, Arial, sans-serif" font-size="13" fill="#333">Cluster 16->20</text>
<rect x="783.0" y="408.7" width="66.0" height="71.3" fill="#3B6EA8" rx="2"/>
<text x="816.0" y="403.7" text-anchor="middle" font-family="Inter, Arial, sans-serif" font-size="10" fill="#222">0.26</text>
<rect x="852.0" y="236.0" width="66.0" height="244.0" fill="#D97B24" rx="2"/>
<text x="885.0" y="231.0" text-anchor="middle" font-family="Inter, Arial, sans-serif" font-size="10" fill="#222">0.89</text>
<rect x="921.0" y="295.8" width="66.0" height="184.2" fill="#4C9A51" rx="2"/>
<text x="954.0" y="290.8" text-anchor="middle" font-family="Inter, Arial, sans-serif" font-size="10" fill="#222">0.67</text>
<rect x="92" y="542" width="14" height="14" fill="#3B6EA8" rx="2"/>
<text x="112" y="554" font-family="Inter, Arial, sans-serif" font-size="13" fill="#333">stable labels</text>
<rect x="240" y="542" width="14" height="14" fill="#D97B24" rx="2"/>
<text x="260" y="554" font-family="Inter, Arial, sans-serif" font-size="13" fill="#333">remapped labels</text>
<rect x="404" y="542" width="14" height="14" fill="#4C9A51" rx="2"/>
<text x="424" y="554" font-family="Inter, Arial, sans-serif" font-size="13" fill="#333">Jump Hash</text>
<text x="1000" y="582" text-anchor="end" font-family="Inter, Arial, sans-serif" font-size="12" fill="#777">10-seed submission-validation summary</text>
</svg>
